<svg width="1200" height="900" viewBox="0 0 1200 900" fill="none" xmlns="http://www.w3.org/2000/svg">
  <g opacity="0.6" stroke="#F1D6C9" stroke-width="1.3" stroke-linecap="round" stroke-linejoin="round">
    <path d="M146 128C193 98 241 92 284 114C312 128 331 154 348 185"/>
    <path d="M1054 128C1007 98 959 92 916 114C888 128 869 154 852 185"/>
    <path d="M146 772C193 802 241 808 284 786C312 772 331 746 348 715"/>
    <path d="M1054 772C1007 802 959 808 916 786C888 772 869 746 852 715"/>
    <path d="M220 180C248 164 278 160 305 171C334 183 348 211 357 238"/>
    <path d="M980 180C952 164 922 160 895 171C866 183 852 211 843 238"/>
    <path d="M220 720C248 736 278 740 305 729C334 717 348 689 357 662"/>
    <path d="M980 720C952 736 922 740 895 729C866 717 852 689 843 662"/>
    <path d="M600 132C572 132 551 146 539 172C528 198 510 215 486 224"/>
    <path d="M600 132C628 132 649 146 661 172C672 198 690 215 714 224"/>
    <path d="M600 768C572 768 551 754 539 728C528 702 510 685 486 676"/>
    <path d="M600 768C628 768 649 754 661 728C672 702 690 685 714 676"/>
    <path d="M600 204C575 204 554 221 548 248C566 250 584 243 600 228C616 243 634 250 652 248C646 221 625 204 600 204Z"/>
    <path d="M600 696C575 696 554 679 548 652C566 650 584 657 600 672C616 657 634 650 652 652C646 679 625 696 600 696Z"/>
    <path d="M409 126H791"/>
    <path d="M409 774H791"/>
    <path d="M354 450C404 433 451 434 498 452"/>
    <path d="M846 450C796 433 749 434 702 452"/>
    <path d="M498 452C527 468 561 478 600 478C639 478 673 468 702 452"/>
    <path d="M600 338C571 338 548 351 531 377C556 384 579 377 600 356C621 377 644 384 669 377C652 351 629 338 600 338Z"/>
    <path d="M600 562C571 562 548 549 531 523C556 516 579 523 600 544C621 523 644 516 669 523C652 549 629 562 600 562Z"/>
    <circle cx="600" cy="450" r="86"/>
    <circle cx="600" cy="450" r="112" opacity="0.44"/>
  </g>
</svg>
