<svg width="480" height="480" viewBox="0 0 480 480" fill="none" xmlns="http://www.w3.org/2000/svg">
  <rect width="480" height="480" fill="#160E10"/>
  <g opacity="0.9">
    <path d="M86 112C96 87 118 68 144 68C170 68 192 87 202 112C198 121 189 128 182 144C175 160 170 183 158 204C151 216 147 232 144 260C141 232 137 216 130 204C118 183 113 160 106 144C99 128 90 121 86 112Z" fill="#3F141C"/>
    <path d="M106 114C114 96 129 84 144 84C159 84 174 96 182 114C176 122 168 128 162 143C156 157 151 176 144 197C137 176 132 157 126 143C120 128 112 122 106 114Z" fill="#6B1F2D"/>
    <path d="M126 118C133 103 140 96 144 96C148 96 155 103 162 118C156 128 151 138 148 153C146 162 145 171 144 180C143 171 142 162 140 153C137 138 132 128 126 118Z" fill="#A63A47"/>
    <path d="M143 198C151 230 151 267 144 312" stroke="#42533B" stroke-width="5.5" stroke-linecap="round"/>
    <path d="M144 250C127 240 112 244 96 267" stroke="#506749" stroke-width="3.2" stroke-linecap="round"/>
    <path d="M143 274C163 264 180 271 193 294" stroke="#506749" stroke-width="3.2" stroke-linecap="round"/>
    <path d="M96 267C108 256 122 255 136 262C127 274 113 278 96 267Z" fill="#293228"/>
    <path d="M193 294C182 280 166 277 151 286C161 300 177 302 193 294Z" fill="#293228"/>
  </g>
  <g opacity="0.54">
    <path d="M328 98C338 73 360 54 386 54C412 54 434 73 444 98C440 107 431 114 424 130C417 146 412 169 400 190C393 202 389 218 386 246C383 218 379 202 372 190C360 169 355 146 348 130C341 114 332 107 328 98Z" fill="#42141C"/>
    <path d="M348 100C356 82 371 70 386 70C401 70 416 82 424 100C418 108 410 114 404 129C398 143 393 162 386 183C379 162 374 143 368 129C362 114 354 108 348 100Z" fill="#6B1F2D"/>
    <path d="M368 104C375 89 382 82 386 82C390 82 397 89 404 104C398 114 393 124 390 139C388 148 387 157 386 166C385 157 384 148 382 139C379 124 374 114 368 104Z" fill="#B24353"/>
    <path d="M385 184C393 216 393 253 386 298" stroke="#4B5E42" stroke-width="5" stroke-linecap="round"/>
    <path d="M386 240C370 229 355 233 339 256" stroke="#5C7651" stroke-width="3" stroke-linecap="round"/>
    <path d="M386 264C405 254 422 261 435 284" stroke="#5C7651" stroke-width="3" stroke-linecap="round"/>
  </g>
  <g opacity="0.42">
    <path d="M296 296C306 271 328 252 354 252C380 252 402 271 412 296C408 305 399 312 392 328C385 344 380 367 368 388C361 400 357 416 354 444C351 416 347 400 340 388C328 367 323 344 316 328C309 312 300 305 296 296Z" fill="#351118"/>
    <path d="M316 298C324 280 339 268 354 268C369 268 384 280 392 298C386 306 378 312 372 327C366 341 361 360 354 381C347 360 342 341 336 327C330 312 322 306 316 298Z" fill="#5B1D27"/>
    <path d="M336 302C343 287 350 280 354 280C358 280 365 287 372 302C366 312 361 322 358 337C356 346 355 355 354 364C353 355 352 346 350 337C347 322 342 312 336 302Z" fill="#903544"/>
    <path d="M353 382C361 414 361 449 354 480" stroke="#3F5037" stroke-width="5" stroke-linecap="round"/>
  </g>
  <g opacity="0.34" stroke="#C29A8B" stroke-width="1.2">
    <path d="M30 40C69 25 97 25 132 48"/>
    <path d="M260 34C295 14 334 14 370 34"/>
    <path d="M222 432C263 409 302 406 344 426"/>
    <path d="M32 364C62 349 92 349 122 364"/>
  </g>
  <g opacity="0.3" fill="#D4B3A1">
    <circle cx="220" cy="98" r="3"/>
    <circle cx="248" cy="116" r="2"/>
    <circle cx="58" cy="164" r="2"/>
    <circle cx="448" cy="166" r="3"/>
    <circle cx="274" cy="232" r="2"/>
    <circle cx="68" cy="318" r="3"/>
    <circle cx="434" cy="332" r="2"/>
    <circle cx="238" cy="402" r="3"/>
  </g>
</svg>
